<?xml version="1.0" encoding="utf-8"?>
<!-- Generator: Adobe Illustrator 25.2.1, SVG Export Plug-In . SVG Version: 6.00 Build 0)  -->
<svg version="1.1" baseProfile="basic" id="Layer_1"
	 xmlns="http://www.w3.org/2000/svg" xmlns:xlink="http://www.w3.org/1999/xlink" x="0px" y="0px" viewBox="0 0 1000 1000"
	 xml:space="preserve">
<style type="text/css">
	.st0{fill:#6EF8FF;}
	.st1{fill:none;stroke:#000000;stroke-width:10;stroke-miterlimit:10;}
	.st2{fill:#FFC36E;}
	.st3{fill:#FF6EB2;}
	.st4{fill:#C5FF6E;}
	.st5{fill:#FF6E6E;}
	.st6{fill:#956EFF;}
	.st7{fill:#6EA8FF;}
	.st8{fill:#E76EFF;}
	.st9{fill:#ECFF6E;}
</style>
<rect x="-460" y="-40" class="st2" width="1920" height="1080"/>
<rect x="-435" y="-15" class="st1" width="1870" height="1030"/>
<g>
	<g>
		<path d="M411.4,601.9l87.2-98.8c10-11.1,17.7-21.1,23.3-29.9c5.6-8.8,8.3-18,8.3-27.6c0-8.9-2.6-16.3-7.7-22.2
			c-5.2-5.9-13-8.9-23.4-8.9c-10.3,0-18.6,3.5-24.8,10.5c-6.2,7-9.3,17.5-9.3,31.5v4.9h-54.7v-6c0-24.3,8-44,24.1-59.2
			c16.1-15.2,37.6-22.8,64.5-22.8c28.7,0,50.3,6.6,64.9,19.8c14.5,13.2,21.9,30,22,50.4c0,17.1-4.5,32.2-13.4,45.2
			s-19.8,26.5-32.4,40.6l-58,62.8h109.2v42.4H411.4V601.9z"/>
	</g>
</g>
</svg>
