<?xml version="1.0" encoding="utf-8"?>
<!-- Generator: Adobe Illustrator 25.2.1, SVG Export Plug-In . SVG Version: 6.00 Build 0)  -->
<svg version="1.1" baseProfile="basic" id="Layer_1"
	 xmlns="http://www.w3.org/2000/svg" xmlns:xlink="http://www.w3.org/1999/xlink" x="0px" y="0px" viewBox="0 0 1000 1000"
	 xml:space="preserve">
<style type="text/css">
	.st0{fill:#6EF8FF;}
	.st1{fill:none;stroke:#000000;stroke-width:10;stroke-miterlimit:10;}
	.st2{fill:#FFC36E;}
	.st3{fill:#FF6EB2;}
	.st4{fill:#C5FF6E;}
	.st5{fill:#FF6E6E;}
	.st6{fill:#956EFF;}
	.st7{fill:#6EA8FF;}
	.st8{fill:#E76EFF;}
	.st9{fill:#ECFF6E;}
</style>
<rect x="-460" y="-40" class="st5" width="1920" height="1080"/>
<rect x="-435" y="-15" class="st1" width="1870" height="1030"/>
<g>
	<g>
		<path d="M408.4,562.1h54.1v3.3c0,10.7,3.2,19,9.7,24.9c6.4,5.9,15.5,8.9,27.1,8.9c12,0,21-4,27.1-12c6.1-8,9.1-19.7,9.1-34.9
			c0-15-3.2-26.4-9.6-34.1c-6.4-7.7-15.3-11.6-26.6-11.6c-8.7,0-16,1.8-22.1,5.4c-6,3.6-11.5,8.4-16.3,14.2l-43.1-20l13.2-127.6
			h145.4v42.9l-102.1-0.2l-6.2,56.6c4.7-3.3,10.4-6.1,17.2-8.4c6.8-2.3,14.8-3.5,24.1-3.5c23.6,0,42.9,7.4,58,22.1
			c15.1,14.8,22.7,35.3,22.7,61.7c0,27.3-7.9,49.1-23.7,65.4c-15.8,16.3-38.2,24.4-67.1,24.4c-29.9,0-52.5-7-67.9-20.9
			c-15.4-13.9-23-31.6-23-52.9V562.1z"/>
	</g>
</g>
</svg>
