<?xml version="1.0" encoding="utf-8"?>
<!-- Generator: Adobe Illustrator 25.2.1, SVG Export Plug-In . SVG Version: 6.00 Build 0)  -->
<svg version="1.1" baseProfile="basic" id="Layer_1"
	 xmlns="http://www.w3.org/2000/svg" xmlns:xlink="http://www.w3.org/1999/xlink" x="0px" y="0px" viewBox="0 0 1000 1000"
	 xml:space="preserve">
<style type="text/css">
	.st0{fill:#6EF8FF;}
	.st1{fill:none;stroke:#000000;stroke-width:10;stroke-miterlimit:10;}
	.st2{fill:#FFC36E;}
	.st3{fill:#FF6EB2;}
	.st4{fill:#C5FF6E;}
	.st5{fill:#FF6E6E;}
	.st6{fill:#956EFF;}
	.st7{fill:#6EA8FF;}
	.st8{fill:#E76EFF;}
	.st9{fill:#ECFF6E;}
</style>
<rect x="-460" y="-40" class="st8" width="1920" height="1080"/>
<rect x="-435" y="-15" class="st1" width="1870" height="1030"/>
<g>
	<g>
		<path d="M423,524.8c10-10.7,21.4-18.1,34.3-22.2v-0.7c-11.6-4.8-21.3-12.2-29.2-22.3c-7.9-10.1-11.8-22.5-11.8-37.3
			c0-20.2,7.5-36.7,22.6-49.5c15.1-12.8,35.4-19.2,61.1-19.2s46,6.4,61.1,19.2c15.1,12.8,22.6,29.4,22.6,49.7
			c0,14.7-3.6,27-10.7,36.9c-7.1,10-16.6,17.5-28.3,22.5v0.7c13,3.8,24.1,11.1,33.4,22c9.3,10.9,13.9,24.8,13.9,41.8
			c0,23.1-8.3,41.1-25,54c-16.6,12.9-39,19.3-67,19.3c-28,0-50.3-6.4-67-19.3c-16.6-12.9-25-30.9-25-54
			C408.1,549.4,413,535.5,423,524.8z M472.5,590.2c6.4,7,15.6,10.5,27.5,10.5s21.1-3.5,27.5-10.5c6.4-7,9.6-16.3,9.6-27.9
			c0-12-3-21.6-9.1-28.8c-6.1-7.3-15.4-10.9-27.9-10.9c-12.5,0-21.9,3.6-27.9,10.9c-6.1,7.3-9.1,16.9-9.1,28.8
			C462.9,573.9,466.1,583.2,472.5,590.2z M476.6,474.4c4.9,6.8,12.7,10.2,23.4,10.2c10.7,0,18.5-3.4,23.4-10.2
			c4.9-6.8,7.4-15.6,7.4-26.4c0-10.4-2.6-19-7.7-25.6c-5.2-6.6-12.8-9.9-23-9.9s-17.9,3.3-23,9.9c-5.2,6.6-7.7,15.1-7.7,25.6
			C469.2,458.8,471.7,467.6,476.6,474.4z"/>
	</g>
</g>
</svg>
