<?xml version="1.0" encoding="utf-8"?>
<!-- Generator: Adobe Illustrator 25.2.1, SVG Export Plug-In . SVG Version: 6.00 Build 0)  -->
<svg version="1.1" baseProfile="basic" id="Layer_1"
	 xmlns="http://www.w3.org/2000/svg" xmlns:xlink="http://www.w3.org/1999/xlink" x="0px" y="0px" viewBox="0 0 1000 1000"
	 xml:space="preserve">
<style type="text/css">
	.st0{fill:#6EF8FF;}
	.st1{fill:none;stroke:#000000;stroke-width:10;stroke-miterlimit:10;}
	.st2{fill:#FFC36E;}
	.st3{fill:#FF6EB2;}
	.st4{fill:#C5FF6E;}
	.st5{fill:#FF6E6E;}
	.st6{fill:#956EFF;}
	.st7{fill:#6EA8FF;}
	.st8{fill:#E76EFF;}
	.st9{fill:#ECFF6E;}
</style>
<rect x="-460" y="-40" class="st3" width="1920" height="1080"/>
<rect x="-435" y="-15" class="st1" width="1870" height="1030"/>
<g>
	<g>
		<path d="M406.7,560h54v3.5c0,11.2,3.1,20,9.2,26.3c6.2,6.3,15.1,9.4,27,9.4c11.8,0,20.9-3.2,27.1-9.6c6.2-6.4,9.3-16.3,9.3-29.8
			c0-12.9-3.6-22.6-10.7-29c-7.1-6.4-17.7-9.7-31.6-9.7h-23v-39h21.4c12,0,21-3.1,27.2-9.3c6.2-6.2,9.2-14.9,9.2-26.2
			c0-10.8-2.5-18.9-7.6-24.4c-5-5.5-12.5-8.3-22.5-8.3c-10.1,0-17.7,2.8-22.8,8.3c-5.1,5.5-7.6,13.5-7.6,23.9v2.8h-53.8v-2.6
			c0-20.3,7.4-37.5,22.3-51.7c14.9-14.2,36-21.3,63.3-21.3c27.9,0,48.8,6.5,62.8,19.6c13.9,13.1,20.9,28.6,20.9,46.5
			c0,13.9-3.3,26.2-9.8,36.8c-6.5,10.6-16.6,18.5-30.3,23.6v0.7c14.9,3.4,26.7,10.5,35.3,21.4c8.7,10.8,13,24.2,13,40
			c0,24-8.1,43-24.3,56.9c-16.2,13.9-39.1,20.8-68.6,20.8c-29.4,0-51.7-7-66.7-21c-15.1-14-22.6-32.3-22.6-54.8V560z"/>
	</g>
</g>
</svg>
