<?xml version="1.0" encoding="utf-8"?>
<!-- Generator: Adobe Illustrator 25.2.1, SVG Export Plug-In . SVG Version: 6.00 Build 0)  -->
<svg version="1.1" baseProfile="basic" id="Layer_1"
	 xmlns="http://www.w3.org/2000/svg" xmlns:xlink="http://www.w3.org/1999/xlink" x="0px" y="0px" viewBox="0 0 1000 1000"
	 xml:space="preserve">
<style type="text/css">
	.st0{fill:#6EF8FF;}
	.st1{fill:none;stroke:#000000;stroke-width:10;stroke-miterlimit:10;}
	.st2{fill:#FFC36E;}
	.st3{fill:#FF6EB2;}
	.st4{fill:#C5FF6E;}
	.st5{fill:#FF6E6E;}
	.st6{fill:#956EFF;}
	.st7{fill:#6EA8FF;}
	.st8{fill:#E76EFF;}
	.st9{fill:#ECFF6E;}
</style>
<rect x="-460" y="-40" class="st6" width="1920" height="1080"/>
<rect x="-435" y="-15" class="st1" width="1870" height="1030"/>
<g>
	<g>
		<path d="M408.2,521.5c0-44.4,12.9-79.8,38.6-106.1C472.5,389.1,510.6,376,561,376h4.7v42h-4.4c-32.1,0-57.3,7.9-75.5,23.6
			c-18.2,15.8-27.3,42.2-27.3,79.2l3.5,8.4c0,27.1,3.7,45.6,11.2,55.5c7.4,10,17.4,14.9,30,14.9c12.7,0,21.9-4.1,27.9-12.4
			c5.9-8.3,8.9-20.2,8.9-35.9c0-14.5-3-26.2-9.1-35c-6.1-8.8-15.6-13.2-28.5-13.2c-11.7,0-21.4,4.4-29.1,13.1
			c-7.7,8.7-11.5,20-11.5,33.7h-17.6c0-24.4,6.2-44.8,18.6-61.3c12.4-16.5,30-24.7,52.7-24.7c24.7,0,44.1,7.9,58,23.8
			c13.9,15.9,20.9,36.8,20.9,62.7c0,26.4-7.9,47.8-23.8,64.3c-15.9,16.5-38.2,24.8-67.1,24.8c-27.1,0-49.7-8.7-67.9-26.1
			c-18.2-17.4-27.3-46-27.3-85.7V521.5z"/>
	</g>
</g>
</svg>
