<?xml version="1.0" encoding="utf-8"?>
<!-- Generator: Adobe Illustrator 25.2.1, SVG Export Plug-In . SVG Version: 6.00 Build 0)  -->
<svg version="1.1" baseProfile="basic" id="Layer_1"
	 xmlns="http://www.w3.org/2000/svg" xmlns:xlink="http://www.w3.org/1999/xlink" x="0px" y="0px" viewBox="0 0 1920 1080"
	 xml:space="preserve">
<style type="text/css">
	.st0{fill:#6EF8FF;}
	.st1{fill:none;stroke:#000000;stroke-width:10;stroke-miterlimit:10;}
	.st2{fill:#FFC36E;}
	.st3{fill:#FF6EB2;}
	.st4{fill:#C5FF6E;}
	.st5{fill:#FF6E6E;}
	.st6{fill:#956EFF;}
	.st7{fill:#6EA8FF;}
	.st8{fill:#E76EFF;}
	.st9{fill:#ECFF6E;}
</style>
<rect class="st9" width="1920" height="1080"/>
<rect x="25" y="25" class="st1" width="1870" height="1030"/>
<g>
	<g>
		<path d="M889.4,438c15.9-16.3,38.2-24.5,67.1-24.5c27.1,0,49.7,8.7,67.9,26.1c18.2,17.4,27.3,46,27.3,85.7v6.3
			c0,42.9-12.9,77.2-38.6,103c-25.7,25.8-63.8,39.1-114.2,39.9h-4.7v-42h4.4c32.1,0,57.1-7.8,75.1-23.6
			c17.9-15.7,26.9-41.2,26.9-76.6l-2.6-8.4c0-25.5-3.5-43.7-10.6-54.4c-7.1-10.7-17.4-16.1-31-16.1c-12.5,0-21.7,4-27.4,12.1
			c-5.7,8.1-8.6,19.9-8.6,35.3c0,14.9,3,26.5,8.9,34.8c5.9,8.3,15.3,12.5,28,12.5c12.1,0,22-4.2,29.8-12.7
			c7.8-8.4,11.7-19.5,11.7-33.2h15.5c0,22.4-5.7,42.2-17,59.3c-11.3,17.2-28.9,25.8-52.6,25.8c-24.6,0-43.9-7.8-57.9-23.6
			c-14-15.7-21-36.4-21-62.1C865.6,475.6,873.5,454.4,889.4,438z"/>
	</g>
</g>
</svg>
