<?xml version="1.0" encoding="utf-8"?>
<!-- Generator: Adobe Illustrator 25.2.1, SVG Export Plug-In . SVG Version: 6.00 Build 0)  -->
<svg version="1.1" baseProfile="basic" id="Layer_1"
	 xmlns="http://www.w3.org/2000/svg" xmlns:xlink="http://www.w3.org/1999/xlink" x="0px" y="0px" viewBox="0 0 1920 1080"
	 xml:space="preserve">
<style type="text/css">
	.st0{fill:#6EF8FF;}
	.st1{fill:none;stroke:#000000;stroke-width:10;stroke-miterlimit:10;}
	.st2{fill:#FFC36E;}
	.st3{fill:#FF6EB2;}
	.st4{fill:#C5FF6E;}
	.st5{fill:#FF6E6E;}
	.st6{fill:#956EFF;}
	.st7{fill:#6EA8FF;}
	.st8{fill:#E76EFF;}
	.st9{fill:#ECFF6E;}
	.st10{fill:#FF6E89;}
	.st11{fill:#6EFFD1;}
	.st12{fill:#1A1A1A;}
	.st13{fill:#FFFFFF;}
</style>
<rect class="st10" width="1920" height="1080"/>
<rect x="25" y="25" class="st1" width="1870" height="1030"/>
<g>
	<g>
		<path d="M844.3,470.5L784,493.9v-44.6l87.5-33.4h27.1v258.8h-54.3V470.5z"/>
		<path d="M972.5,507.4c0-28.1,7.6-50.8,22.9-68c15.2-17.2,37.3-25.8,66.1-25.8c28.9,0,51.1,8.6,66.4,25.8
			c15.3,17.2,22.9,39.9,22.9,68.1v78.4c0,28.1-7.7,50.8-23.1,68c-15.4,17.2-37.5,25.8-66.2,25.8c-28.9,0-51-8.6-66.2-25.8
			c-15.2-17.2-22.8-39.9-22.8-68V507.4z M1035.9,625.4c5.2,8.8,13.8,13.3,25.8,13.3c12,0,20.5-4.4,25.7-13.3
			c5.2-8.8,7.7-20.4,7.7-34.7v-88.1c0-14.4-2.6-26-7.8-34.9c-5.2-8.8-13.7-13.3-25.6-13.3c-12,0-20.5,4.4-25.8,13.3
			c-5.2,8.8-7.8,20.5-7.8,34.9v88.1C1028.2,605,1030.8,616.6,1035.9,625.4z"/>
	</g>
</g>
</svg>
